<svg version="1" xmlns="http://www.w3.org/2000/svg" width="2902.667" height="2902.667" viewBox="0 0 2177.000000 2177.000000"><path d="M438.9 218.4c-.2.2-2.4.7-4.9 1-6.3.8-10 2-13.9 4.4-1.8 1.1-3.9 1.8-4.6 1.6-.7-.3-3.3 1.4-5.6 3.9-2.4 2.4-7.3 6.4-10.9 8.9-7.9 5.5-17.9 15.7-25.6 25.8-3.1 4.1-7.1 9.1-8.9 11-8.2 8.7-39.2 55.7-46.4 70.2-6.7 13.5-16.1 38.1-19.1 49.8-1.1 4.1-4.4 15.1-7.5 24.4-3 9.3-6.2 20.3-7 24.5-.9 4.2-2.2 10.1-3 13.1-.7 3-1.6 9.3-2 14-.3 4.7-.8 10.5-1.1 13-1.2 10.2-1.4 11.7-1.8 15-.3 1.9-.8 6-1.2 9-.3 3-1 7.7-1.5 10.5-.5 2.7-1.2 9.5-1.5 15-.3 5.5-.7 11.8-.9 14-.2 2.2-.6 10.1-1 17.5-.3 7.4-.8 15.1-1.1 17-.3 1.9-.7 8.9-1 15.4-.4 11-.7 12.5-3.5 18-3.8 7.4-20.7 33-26.7 40.5-2.4 3-5.3 7.3-6.4 9.5-1.2 2.3-4 6.8-6.2 10.1-2.3 3.3-5.2 8-6.5 10.4-1.2 2.5-4.1 7-6.5 10-8.6 11.5-22.4 32.7-27.3 42.1-1 1.9-2.8 4.4-3.9 5.5-1.2 1.1-4.2 6-6.6 11-2.4 4.9-8.1 14.4-12.5 21-4.5 6.6-11.4 18.1-15.4 25.5-4 7.4-8.9 16.2-11 19.5-2 3.3-5.3 9.2-7.2 13.2-1.9 3.9-5.3 9.7-7.4 13-2.2 3.2-4.5 7.4-5.3 9.3-.7 1.9-4.7 10.5-8.8 19-13.3 27.6-16.3 34.2-23.3 52-3.9 9.6-7.6 18.8-8.4 20.5-1.2 2.8-5.3 15.8-6 19.4-.2.9-1.5 6.1-2.9 11.6-4.8 18.9-6.9 34-7 50-.2 27.5 3 42.7 12.9 62.6 4.9 9.7 19.3 30.3 25.2 36 13 12.6 15 14.3 20.7 18.3 3.3 2.2 8.2 5.4 11 7 2.8 1.5 7.1 4.3 9.6 6 4.7 3.3 37.4 20.2 49.2 25.5 3.8 1.6 6.8 3.6 6.8 4.3 0 1.3-4.2 6.6-14.5 18.5-3.3 3.8-7.3 8.6-9 10.7-1.6 2.2-5.2 6.7-8 10.2-24 30-54.7 74.3-72.5 104.9-2.9 4.9-6.2 10.6-7.5 12.5-9.1 14.3-13 20.9-15.2 25.6-1.3 2.9-3.5 6.2-4.8 7.3-1.6 1.1-2.7 3.3-3.1 5.7-.5 3.1-15.9 36.3-24.3 52.4-1.1 1.9-2.2 5.5-2.6 8-.4 2.5-2.2 7.4-4 11-3.1 6.3-5 11.3-6 15.9-.3 1.1-.7 3-1 4.1-.3 1.1-.7 2.8-.9 3.7-.2 1-1.6 5.4-3 9.8-3 9.8-9.3 35.4-10.1 41.5-.4 2.5-1.7 10.3-3 17.5-2.2 12.7-2.8 17.2-4.2 38-1.5 22.6.1 63.5 3.2 78.5.3 1.4.9 7 1.5 12.5 1.1 11 1.2 11.4 3.4 20 .8 3.3 1.8 7.8 2.1 10 .9 6.1 3.2 14.4 6.6 23.6 1.6 4.6 3.5 9.7 4 11.4.6 1.6 1.4 3.9 1.9 5 .4 1.1 1.8 4.7 3.1 8 3.1 8.2 14.6 31.3 17.5 35.2 1.5 1.9 2.4 4.4 2.2 6-.1 2 1.3 4.9 4.9 9.9 2.8 3.9 5.6 8 6.2 9.2.6 1.2 2 2.2 3 2.2 1.9 0 4.7 3.2 10.9 12.4 4.3 6.4 12.2 14.7 34.8 36.6 12.5 12.2 33.5 29 44.4 35.7 11 6.8 29.2 16.9 39.6 22.1 27.8 13.9 67.4 27.8 84.9 29.8 3.3.3 6.2.8 6.5.9.3.2 2.6.6 5 1 2.5.4 7.2 1.2 10.5 1.8 6.6 1.3 38 1.6 46 .4 2.8-.4 7-1 9.5-1.3 7-.8 23.6-5.3 33-9 12.4-4.7 31.6-14.5 38.5-19.6 3.3-2.4 9.2-6.5 13.2-9.1 8.1-5.4 29.2-25.8 40.5-39.2 18.1-21.6 35.3-52 43.3-76.9 5-15.3 11.8-45.3 12.9-57.1.7-6.5 1.4-11 2.2-13.8.4-1.3 1.6-30.9 1.5-37.2-.1-9.6-2-40.2-2.6-43.5-.3-1.4-.7-5.9-1-10-.3-4.1-1-10-1.5-13s-1.1-8.2-1.5-11.5c-.7-7.5-3.9-24.8-7-38.5-1.3-5.8-3.6-16.4-5-23.5-1.4-7.2-3.5-16.6-4.7-21-1.1-4.4-2.2-9.1-2.4-10.5-1.3-7.3-4.8-20.3-7.9-29.8-2-5.9-4.3-13.6-5.1-17-.8-3.5-2.6-9.2-3.9-12.7-2.7-7.2-6.4-20-7-24.2-.2-1.5-1.3-5.1-2.4-7.8-1.1-2.8-4.5-13.3-7.6-23.5-6.5-21.7-6-19.9-8-27.5-.9-3.3-3.1-10.9-5-16.8-3.3-10.2-8.2-27.5-9-31.5-.1-.9-1-3.5-1.9-5.7-.8-2.2-1.8-5.1-2-6.5-1.6-8.2-4.1-16.3-9.5-30.7-3.4-8.9-6.1-16.6-6.1-17.2 0-.6-1.8-5.3-4-10.5-2.2-5.1-4-9.9-4-10.5 0-.7-1.3-3.8-2.9-7-1.6-3.3-3.6-9-4.5-12.7-.8-3.8-3.4-12.3-5.6-18.9-2.3-6.6-5.7-16.5-7.5-22-1.9-5.5-4.6-12.2-6-14.9-1.4-2.7-2.5-5.8-2.5-6.8s-1-3.2-2.1-4.8c-2.4-3.1-3.2-10.5-1.2-10.5 1.3 0 10.3 11.8 10.3 13.4 0 .5.4 1.1.8 1.3 1.3.5 8.8 12 9.7 14.8 1.1 3.7 8.8 10.4 16.4 14.4 6.5 3.4 29.6 10.8 38.3 12.2 8 1.3 16.7.5 29.1-2.7 11.2-3 13.1-3.9 23.2-10.7 9.3-6.2 20.2-15.6 27.5-23.7 11.1-12.3 19.1-22.7 25.4-32.9 1.1-1.7 4.4-6.9 7.4-11.5 3.1-4.7 7.3-11.9 9.3-16 3.6-7.1 8.4-15.9 11.3-20.6.7-1.1 2.7-5.6 4.6-10 1.8-4.4 4.8-11.2 6.8-15 1.9-3.9 4.9-10.8 6.7-15.5 1.8-4.7 6.4-16.2 10.2-25.5 3.9-9.4 7.8-19.5 8.8-22.5 1-3 2.6-7.1 3.5-9 2.5-4.9 13.1-35.5 19-54.5 1.2-3.9 3.9-12.8 6.1-20 2.2-7.1 4.7-13.7 5.6-14.7 2.5-2.8 9.3-5.5 22-8.8 6.2-1.7 12.5-3.5 14-4.1 1.6-.6 9.1-2.6 16.8-4.5 18-4.5 33.1-5.5 46.1-2.9 4.8.9 9.5 1.9 10.3 2 .9.2 3.7.7 6.2 1 9.5 1.5 17.8 9.1 21.4 19.9 2.5 7.5 3.1 22.5 1.1 30.9-5.6 23.7-31.3 58.3-55.6 75-15.1 10.3-34.4 18.2-49.5 20.2-2.2.3-5.6.8-7.5 1.1-1.9.2-9.4.5-16.7.6l-13.2.1-5.7-4.3c-9.6-7.3-9.5-7-8.8-15.3.3-3.9 1.2-8.9 1.9-11 2.7-7.8-3.5-5-8.6 3.9-3.4 5.9-5.6 13.7-5.4 18.9.4 8.4 1.5 10.8 8.3 17.2 7.7 7.3 14.4 10.8 24.4 12.9 7.8 1.6 26.2 2.2 35.3 1.1 12-1.5 36.3-8 45-12.1 2.8-1.3 6.6-3.1 8.6-4 2-1 4.5-2.5 5.6-3.5 1.1-1.1 3.3-2.6 4.9-3.4 1.6-.9 5.4-3.9 8.4-6.7 3-2.9 7.5-7.1 9.9-9.3 5-4.8 29.6-37.2 34.1-45 1.7-2.9 4.6-9.4 6.6-14.5 2-5 4-9.5 4.5-9.8 1.5-.9 3.8 1 7.4 6.1 6.7 9.4 20.8 22.6 30.7 28.7 6 3.7 15.3 7.3 21.8 8.3 1.9.3 6.1 1 9.3 1.6 4.9.9 12.9.5 14.8-.6.3-.2 4.6-1.3 9.6-2.4 14.9-3.2 27.8-11.5 41.2-26.3 9.6-10.7 21-25.7 23.3-30.8 8.4-18.4 13.8-40.1 14.1-56.3.1-8.5-.7-20.2-1.8-25.8-1.3-6.5-1.8-9.4-1.8-9.9.2-2.3-6.8-18.9-10.3-24.7-8-12.9-20.3-21.6-38.9-27.3-3.8-1.2-8.2-2.5-9.6-3-4.1-1.3-18.6-1-26.4.6-3.8.8-8.8 1.7-10.9 2-2.2.4-7.7 1.9-12.3 3.5-21.3 7.4-25.2 8.8-30.3 11.1-3.1 1.4-8 3.3-11 4.3s-7.7 3-10.5 4.5c-12.8 7-38.4 15.2-52 16.6-13.5 1.4-16.3.2-20.2-8.3-2.8-6-3.1-10-1.9-25.3 1.4-18.1 3.5-26.4 11.5-45.3 4.7-11.3 15.3-28.1 22.3-35.7 2.9-3.1 12.9-10.8 19.8-15.1 5.5-3.5 17.4-7.1 21.4-6.4 5.5.8 10.9 4.1 13.2 7.8 3.1 5.3 2.6 17.3-1.3 26.7-4 9.8-12 26.5-15 31.3-4 6.4-15.3 29.2-15.3 30.9 0 2.9 2.1 3.1 4.9.4 1.5-1.4 3.2-2.6 3.8-2.6.5 0 4.3-3.6 8.4-8 4.1-4.4 9.7-9.6 12.6-11.5 2.8-1.9 6.2-4.9 7.6-6.7 5.8-7.7 17.7-29.1 20.2-36.4 3.5-10.4 3.8-16.3 1.2-25-1.9-6.1-3-7.8-9.7-14.5-8.7-8.8-13.8-11.7-27.4-15.4-15.8-4.3-23.3-3.4-36 4.2-18.6 11.1-34.4 28.8-49.4 55.3-4 7.2-7.9 15.6-9.1 19.7-1.2 4-3 10.4-4.1 14.1-1.9 6.7-2.4 10.6-3.6 28.7-1.1 17.4-1.1 19 .3 23.9 3.3 11.1 6.2 15.9 15.5 25 12.1 11.8 15 13.1 29.8 13.1 13.2-.1 14.7-.3 29-4.6 11.6-3.4 44.1-16.2 48-18.9 4.5-3 26.3-10.9 40.5-14.7 13.1-3.5 14.9-3.7 29-3.8 13.7 0 15.5.2 20.2 2.4 5.8 2.6 11.5 8.2 13.7 13.5 2.1 5 5.3 17.2 6.2 23.6 1.6 11.3.8 31.8-1.7 43.5-3.4 16.2-4.3 18.1-15.4 35-13.6 20.8-33.6 35.1-52.4 37.6-18 2.3-28.7.6-39.6-6.5-2.7-1.8-7.1-4-9.6-4.9-6.3-2.4-18.1-10.6-19.6-13.8-1.4-2.9-1.6-5.8-1-14.9.8-11.1-2.6-25.3-7.8-32.9-1.9-2.8-3.5-5.3-3.5-5.6 0-1.9-6.7-9.9-9.8-11.9-17.9-11.3-26.2-14.3-50.2-18.2-1.9-.3-3.9-.8-4.3-1.1-1-.6-30.5-.5-35.7.1-5.7.7-23.9 4.7-28.1 6.1-2.2.8-4.3 1.4-4.7 1.5-.4 0-2.9.7-5.5 1.6-6.6 2.2-8.1.9-7.1-6 .3-2.8 1-6 1.4-7.2.5-1.1 1.1-3.6 1.4-5.5.3-1.9.8-4.5 1.1-5.9.7-3.1 1.9-13.8 1.8-16.5-.3-14.9-2.8-31.2-5.9-39-6.9-17-11.1-22.6-19.2-26.1-4.2-1.8-13.9-2.7-19.5-1.8-13.4 2.1-46.6 49.7-57.3 82.2-2.5 7.6-3.6 21.6-2.2 28.2 2.5 11.5 6.8 20.9 11.1 24.6 6.5 5.5 20.7 11.3 31.2 12.7 5.7.8 9.5 1.9 10.5 3.2 1.1 1.4-.6 9.5-3.5 16-1.4 3.4-5.8 16.3-6.1 18.3-.1.7-1.1 3.6-2.2 6.5-3.8 9.8-8 21.2-11.2 30.2-6.1 17.5-20.4 54.1-25.2 64.9-7.3 16.1-21.8 45.1-26.6 53-2.3 3.7-4.2 7-4.2 7.2 0 1.1-9.2 15.2-15.4 23.4-7.9 10.6-20.5 25.2-25.1 29-1.6 1.4-4.3 3.9-6 5.6-3.6 3.8-16.2 12.2-22.6 15.1-11.2 5.2-22.7 6.7-33.4 4.3-5.9-1.3-15.3-6.4-21.2-11.4-4.2-3.7-19.5-25.2-21.4-30.3-.5-1.5-2.2-4.5-3.5-6.5-5.9-8.4-14.7-37.9-16-53.2-.3-3.8-.7-7.7-.9-8.6-1.7-8.8-1.7-10.8.2-12.5 2.8-2.5 28.3-18.8 32.7-20.9 2.2-1 4.9-2.8 6-3.9 2.4-2.2 12.1-8.7 13.2-8.7.4 0 2.7-1.7 5.1-3.8 2.5-2 5.8-4.6 7.3-5.7 11.8-8.4 39.8-35.3 44.7-42.9 1.4-2.2 4.9-6.8 7.8-10.2 12-14.1 23.3-36.3 29.6-58.4 3.6-12.7 4.1-15.8 4.1-24.5 0-23.7-7.7-43.2-23.1-58.4-7.3-7.1-12.2-10.2-23.8-14.7l-9.5-3.6-13.7.5c-7.8.3-15.5 1.2-18.1 2-14.1 4.6-27 13.5-39.4 27.2-10.8 11.8-13.6 15.7-20.1 27.5-3.1 5.7-7.4 12.9-9.6 16.1-2.1 3.2-3.9 6.1-3.9 6.4 0 .3-2 4.9-4.4 10.3-4 8.6-8.8 23-10 29.8-.3 1.3-1.1 5.9-2 10.1-2.9 15-4 29.2-4 50.3 0 15.3 1.1 39.8 1.9 44 2.6 13.2 2.4 19.8-.6 22.2-1.6 1.4-2.5 1.5-4 .7-2.7-1.4-3.9-4.8-5.4-15.5-.7-4.9-2-10.4-2.8-12.1-.9-1.7-1.9-6-2.3-9.4-.6-6.5-6-28.7-8.8-36.8-.9-2.4-1.6-6.5-1.6-9.1 0-2.9-.6-5.2-1.4-5.9-1.8-1.5-3.6-8.9-4.1-16.9-.2-3.4-.6-6.6-1-7.2-.9-1.4-1.2-3.2-3.1-17.3-.3-2.3-1.7-8.7-3.1-14.2-1.4-5.5-2.7-11.1-2.9-12.5-.3-1.4-.7-3.3-1-4.4-.4-1-.8-5.3-1-9.5-.1-4.2-1-9.5-1.8-11.9-.8-2.3-1.3-4.2-1.1-4.2.3 0 0-1.2-.6-2.8-.6-1.5-1.2-7.2-1.4-12.8-.2-6.2-.9-11.5-1.9-13.8-1.8-4.4-4.6-19.4-4.6-24.9 0-2.1-.9-5.9-2.1-8.4-1.1-2.5-1.9-6.1-1.8-8.1.1-2.1-.1-4.8-.5-6.2-.3-1.4-.8-5.4-1-9-.2-3.6-1.1-9.7-2-13.5-2-8.3-4.4-24.2-5.2-34-.3-3.9-1-8.4-1.4-10-.5-1.7-1-6.2-1.1-10-.1-3.9-1-9.3-2-12-1.9-5.4-3.6-17.9-4.5-32-.3-5-.7-10.1-.9-11.4-.5-2.7-1.8-26.2-1.7-30.6 0-1.7 0-4 .1-5.1.1-1.9 5.9-11.2 15-23.9 3-4.3 13.6-20.2 26.8-40.2 4.5-6.8 9.9-14.8 12-17.6 2.1-2.9 8.8-12.9 15-22.2 6.2-9.4 11.7-17.7 12.3-18.5.6-.8 4.5-6.8 8.8-13.2 8.9-13.4 11.9-17.9 18.5-27.7 8.4-12.6 14-21.4 19.7-30.8 3-5.1 9.8-16.3 15.1-25 14.6-24 22.4-38.7 31.3-58.8 3.7-8.3 7.2-15.9 7.7-17 .9-1.8 2.2-6.5 8-27.5 2.2-8.1 3.3-29.6 1.8-37.3-.4-2.3-1-6.2-1.4-8.7-1.5-9.9-6.5-19.9-13.2-26.2-2.8-2.7-10.4-6.4-14.6-7.2-1.2-.2-4-.7-6.2-1.1-2.2-.4-4.7-.9-5.6-1.1-.8-.2-1.7-.2-2 0zm8.6 25c4.7 2 6.4 5.7 8.2 18.6.7 4.7.7 19.6 0 24.5-2.9 21.5-18 59.9-34.3 87-2.3 3.8-5.6 9.9-7.4 13.5-1.8 3.6-6.1 10.9-9.7 16.3-3.6 5.4-7.2 11.5-8 13.5-.8 2-3.2 5.7-5.3 8.2-3.9 4.8-7 10-7 12.2 0 1.2-7.9 12.4-13.9 19.8-1.6 2-4.2 6.3-5.9 9.6-1.7 3.4-4.1 7.4-5.4 9-1.3 1.6-5.3 7.6-8.8 13.4-3.5 5.8-6.8 10.9-7.2 11.5-5.7 7-11.3 15.1-13.6 20-1.6 3.3-5.6 9.6-8.8 14-3.3 4.4-7.5 10.6-9.3 13.8-1.8 3.2-4.4 7-5.8 8.5-1.4 1.5-4.2 5.7-6.4 9.3-6.1 10.5-8.6 9.8-8.3-2.1.1-6.2 1-16.3 1.8-20.5.2-1.1.7-5.2 1-9 .7-6.9 1.4-13.7 2.2-18.5 1-7.3 4.4-28.8 4.8-30.6.2-1.2.7-3.9 1-6 2-12.7 3.2-18.5 6.6-32.9 2.1-8.8 4.5-17.9 5.3-20.1.9-2.3 1.8-6.8 2.2-10 .4-3.3 2-9.1 3.6-12.9 1.5-3.9 4.2-11.1 6-16 4.8-13.5 14.2-34.5 18.3-40.9 2-3.1 3.6-5.9 3.6-6.2 0-1.8 17.3-29.3 21.9-35 1.4-1.8 3.7-4.7 5.1-6.5 2.3-3 5.9-6.7 9.2-9.5.7-.6 4.2-4.6 7.8-8.9 13.8-16.5 34-32.9 44.2-36.1 2.9-.9 5.8-1.7 6.3-1.9 1.8-.6 2.6-.5 6 .9zM269.7 656.8c.8.5 1.4 4.2 1.7 9.7.3 5 .7 9.7 1 10.5.2.8.7 4 1.1 7 2.3 21.7 2.4 23.1 2.9 23.8.2.4.7 3.2 1.1 6.2.3 3 .8 6.6 1 8 .2 1.4.6 5 1 8s.8 6.6 1 8c.2 1.4.7 5 1 8 .3 3 .8 6.6 1 8 .2 1.4.7 4.7 1.1 7.5.7 5.7 1.1 7.9 1.8 11.5 1.1 4.9 3.1 16 4.1 22.5 1.2 8.5 2.5 16.3 5 30 1.7 9.6 2.2 12.6 3 18.5.3 2.5 1 7 1.6 10 .6 3 1.2 6.6 1.5 8 .2 1.4.8 4.5 1.4 7 .5 2.5 1.8 9.4 2.9 15.5 1.1 6 2.3 12.1 2.5 13.5.3 1.4.9 4.8 1.5 7.7.6 2.9 1.3 7.4 1.7 10 .3 2.6 1.2 7.7 2 11.2.8 3.5 1.3 6.6 1 6.8-.3.3.1 2.1 1 4.1 1.9 4.5 2.6 8.6 2.5 14.1 0 2.5.5 5.1 1.2 5.9.6.8 1.2 4.8 1.3 9.1.1 4.2.6 9.2 1.2 11.1.6 1.9 1.4 6.2 1.7 9.5.9 9 8.3 36.8 10 37.8 1.4.8 5 6.7 4.1 6.7-.2 0 0 1.7.5 3.7.5 2.1.9 6.9.9 10.8.1 8.6 1.3 13.5 4 15.7 1.1 1 2 2.2 2 2.8 0 2.5-16.9 16-22.4 17.9-1.2.4-10.8 6.2-11.6 7.1-.3.3-1.2.9-2.1 1.5-5.6 3.4-22.5 15.7-28.4 20.6-27.1 22.5-31.2 26.3-51.2 46.2-13 12.9-13.4 13.2-17.5 13.1-9.8-.2-51-18.6-62.8-27.9-.8-.7-3.7-2.4-6.3-3.9-9.1-5-27.3-19.4-33.8-26.7-8.9-10.2-13.3-15.8-15.3-19.6-2.5-4.9-8.3-24.1-9-29.8-.4-2.8-1-8.2-1.5-12-1.7-14.4.2-38.1 4.5-56.5.9-3.6 1.8-7.6 2-9 .7-3.8 6.2-22.7 8.6-29.5 1.9-5.5 9.8-25.2 19.9-49.4 7.5-17.9 35.7-70.8 50.3-94.5 3.5-5.5 10.1-16.6 14.8-24.6 14.3-24.6 20.5-34.6 33.4-53.8 2.7-4.1 7.5-11.7 10.6-17 11.8-19.8 39.3-61.1 40.8-61.2.8 0 2.1.4 2.7.8zm386.6 131.9c.8 1 2.6 4.7 3.8 8.3 2.1 5.9 2.3 8.5 2.6 27.4.1 15.8-.1 21.6-1.1 23.5-.8 1.4-1.7 4.6-2.1 7.1-.4 2.5-1.3 6.9-2.1 9.7-4.3 16-4.4 16.2-7.4 17.8-1.7.9-3 1.4-3 1.1 0-.2-2.8.2-6.2.9-6.8 1.5-14.3 1.2-19.4-.7-3.4-1.2-5.3-4.4-7.4-12.3-2.4-9.3-.7-17.7 7.7-37.8 8.1-19.3 26.9-46.4 32.4-46.7.3 0 1.3.8 2.2 1.7zm-164.1 42.2c6.1 2.6 9.8 6 15 13.8 8 11.9 9.9 18.5 9.9 33.8 0 11.4-1.7 21.7-5.6 33.1-3.2 9.2-9.9 23.1-14.9 30.6-10.5 15.6-12.8 18.5-26.3 32.8-10.3 10.9-13.3 14.4-13.3 15.2 0 .4-2 1.9-4.4 3.3-2.4 1.4-6.4 4.7-8.9 7.4s-6.9 6.8-9.9 9.2c-2.9 2.4-5.5 4.6-5.8 5-.3.3-2.3 1.6-4.5 2.9-2.2 1.3-4.2 2.6-4.5 2.9-.3.4-1.3 1-2.2 1.6-.9.5-6.2 4-11.6 7.7-5.5 3.8-10.6 6.8-11.5 6.8-2.7 0-3.6-3.2-4.2-16.1-.4-6.8-.8-15.3-1-18.9-.6-9.5-.6-26.1-.1-28.9.3-1.3.8-4.9 1.1-8 .4-3.1.9-7 1.1-8.6.3-1.7 1.2-7.6 1.9-13.3.8-5.7 1.8-10.9 2.3-11.5.6-.7 1.9-5.5 3.1-10.8 1.7-7.8 3.5-12.3 10.2-25 7.1-13.5 15.6-26.8 20.8-32.6.9-1 2.9-3.8 4.5-6.3 4.9-7.7 17.3-18.8 25.2-22.5 11.7-5.6 25.5-7.1 33.6-3.6zm-139.8 262.3c.8 1.3 1.4 3.9 1.4 5.8 0 3.9 1.1 8.6 4.9 20.3 1.7 5.5 3.4 8.7 5.5 10.5 2.7 2.5 3 3.1 2.5 7.4-.5 4.1-.3 4.8 1.9 6.2 2.1 1.5 2.4 2.4 2.4 8.2 0 5 .6 7.6 2.6 11.6 1.4 2.8 2.7 6 3 7.1.2 1.1 1 2.7 1.9 3.7.8.9 1.5 2.5 1.5 3.6s.7 3 1.6 4.2c2.5 3.5 7.4 18.9 7.4 23 0 2.3 1 5 2.6 7.4 2.4 3.5 3.5 7.2 5 16.8.3 1.9 1.9 5.4 3.5 7.7 2.3 3.2 2.9 5.2 2.9 9.1 0 4.8 1.4 9.9 4.4 16.5.9 1.7 5.1 14 9.5 27.2 4.3 13.2 8.8 26.4 10 29.2 1.1 2.9 1.9 5.3 1.6 5.3-.2 0 1.5 5.7 3.9 12.7 2.4 7.1 6.5 19.8 9.1 28.3 2.6 8.5 6.2 19.8 8 25.1 1.8 5.3 3.9 12.3 4.6 15.5.7 3.3 1.3 6.1 1.4 6.4.4 1.7 3.7 12.8 4.2 14 .3.8.7 1.9.9 2.5.2.5 1.7 5.5 3.4 11s3.6 12.5 4.1 15.5c.6 3 2.6 9.5 4.4 14.5 3.6 10.1 6.2 19.2 7 24.5.2 1.9 1.6 6.8 3 10.9 1.5 4.1 3.7 12.4 5.1 18.3 1.3 6 3.1 12.8 3.9 15.2 1.3 3.7 2.5 9.1 5.1 23.3.2 1.2.8 3.3 1.3 4.7.5 1.3 1 4.8 1 7.7 0 3 .8 7.9 1.9 10.9 1.1 3 2.3 7.7 2.6 10.5.3 2.7.8 6.1 1.1 7.5.3 1.4.7 5.4 1 8.8.2 3.5.8 8.7 1.4 11.5 2.9 15.1 3.5 19.8 3.2 26-.1 3.7.5 11 1.4 16.3 1.4 7.7 1.6 13.6 1.1 30.7-.4 11.7-.8 22.5-1.1 24.2-.2 1.6-.6 7-.9 12-.3 4.9-.8 11-1.2 13.5-1 7.1-8 34.8-10.7 42.5-1.4 3.8-2.8 8.6-3.2 10.5-.9 4.2-8.2 20.3-14.3 31.5-5.7 10.4-15 24.1-22.5 33.4-7.7 9.4-28 29.6-35.4 35.2-3.2 2.4-7.7 6-10 8.1-2.4 2.1-4.9 3.8-5.6 3.8-.8 0-3.9 1.8-6.9 4-10.4 7.4-33.2 16.8-47.8 19.6-1.4.3-7.7 1.6-13.9 3-10.6 2.4-12.7 2.5-28 2-9.2-.3-17.6-.8-18.8-1-1.2-.3-5-.7-8.5-1.1-19.1-1.9-48.4-11.5-80.3-26.4-23.3-10.9-47-23.9-49.5-27.1-.3-.4-4.8-4-10-8s-9.7-7.6-10-8c-.3-.4-2.5-2.2-5-4.1-2.5-1.9-6.6-5.4-9.1-7.9s-7.9-7.7-12-11.5c-6.5-6.3-11.8-11.9-25-26.9-1.9-2.3-5-6.1-6.9-8.6-1.9-2.5-5.5-6.5-8-9-2.7-2.7-6.3-7.9-8.8-13-2.3-4.7-6-11.9-8.1-16-7.9-15.2-23.5-64.8-25.6-81.4-.7-5.5-1.5-9.8-2-10.6-.2-.3-.7-3.7-1-7.5-.4-3.9-.8-8.6-1-10.5-.5-4.8-1.9-49.4-1.7-55 0-2.5.4-7.9.8-12 .3-4.1.7-10.5.9-14.1.1-3.6.5-7.1.9-7.7.4-.6.8-3.5 1-6.4.2-2.9 1-7.8 1.9-10.8.8-3 1.8-8.2 2.1-11.5.2-3.3 1.4-10.1 2.5-15 1.1-5 2.2-11 2.6-13.5.7-5.5.5-4.9 10.6-36 8.1-25.2 9.7-29.4 17.7-46 2.2-4.7 4.8-10.8 5.8-13.5.9-2.8 3.6-8.5 6-12.7 2.4-4.3 4.4-8 4.4-8.4 0-.3 1.5-3.2 3.4-6.3 1.9-3.1 4.7-8.1 6.4-11.1 3.7-7 5.5-10.1 13.2-23 6.7-11.3 11.5-19.8 13.8-24.3.8-1.6 5.3-8.6 10-15.5 4.7-7 13-19.2 18.4-27.2 5.3-8 10.9-15.8 12.3-17.4 1.4-1.6 5.6-7 9.5-12 19-24.9 28.2-36.5 31.7-40.2 2.1-2.2 6.5-7.1 9.8-11 12.9-15 14.2-15.8 22.4-13.4 1.8.5 5.9 1.2 9 1.5 3.1.4 6.7.9 8.1 1.1 7.3 1.4 25.6 1.3 32.7-.2 8.1-1.6 12.2-3.8 19.3-10.3 2.5-2.2 6.3-5.3 8.5-6.8 11.2-7.7 13.5-15.3 6.2-20.7l-2.8-2.1-3.7 2.3c-7.9 4.9-32 16.1-36.7 17.1-6.9 1.5-9.9 1.6-18.2.7-9.2-1-10.5-2.4-6.9-7.1 1.5-2 3.9-4.3 5.4-5.3 3-1.9 7.8-6 13.1-11.2 2-1.9 5.7-5 8.1-6.9 2.5-1.9 5.9-4.8 7.5-6.5 1.7-1.7 6-5.3 9.8-7.9 3.7-2.7 6.7-5.2 6.7-5.7s4.8-4.2 10.7-8.2c6-4 13.1-9.2 15.9-11.5 2.8-2.2 6.5-4.8 8.3-5.7 1.7-.9 6.8-4.1 11.3-7.1 4.5-3 8.8-5.5 9.5-5.5.7 0 1.9 1 2.7 2.2z"/><path d="M1234.5 415c-9.9 2-26.1 7.8-31.5 11.4-15.4 10.1-21.5 14.6-28 20.9-4.2 4-8.9 8.4-10.5 9.8-1.7 1.4-5.1 5-7.6 8-13.8 16.1-17.1 20.6-21.2 29.4-1.5 3.3-4.6 8.7-6.8 12.1-2.1 3.3-5.7 11-7.9 17.2-4.4 12.3-7.2 22.7-9.5 34.9-.3 1.6-.8 4.1-1.2 5.8-.3 1.6-.7 4.5-.9 6.4-.2 1.9-.5 4.8-.8 6.5-.3 1.7-.8 6.7-1.2 11.1-.3 4.4-.8 8.9-1 10-1.5 7.5-2 36.2-1 63 .9 26.7 1.4 34.6 3.1 48.5.2 1.9.7 7.1 1 11.5.3 4.4.8 8.7 1 9.5.2.8.6 3.5.9 6 .3 2.5.8 5.5 1.1 6.8.2 1.2.9 6.4 1.4 11.5.6 5.1 1.3 10.3 1.6 11.7 1.3 5.9 2.4 11.8 3 16 .3 2.5.8 5.2 1 6 .3.8.7 3.3 1 5.5 1 8.1 1.4 10.2 3 18 1 4.4 1.9 9.1 2.2 10.5 1 6 3.4 15.3 4.2 16.8.5.9 1.2 3.9 1.5 6.7.3 2.7 1.7 9.7 3.1 15.5 1.5 5.8 4.2 17.1 6 25.3 1.9 8.1 5.3 20.7 7.5 27.9 2.3 7.3 4.5 15.3 5.1 17.8.6 2.5 2.5 8.3 4.4 13 1.9 4.7 3.7 10.7 4 13.5.4 2.7 1.4 6.8 2.2 9 .8 2.2 2.6 7.6 3.9 12 3.4 11.2 5.5 17.3 10.8 30.7 2.5 6.5 4.6 12.3 4.6 13 0 .7 3.1 10.4 6.9 21.6l6.9 20.3-1.6 6.2c-.8 3.4-2.5 7.6-3.8 9.4-1.3 1.7-2.4 3.5-2.4 3.8 0 .4-.8 1.9-1.9 3.3-1 1.5-2.2 3.8-2.5 5.2-.4 1.4-1.6 4.3-2.6 6.5-.9 2.2-2.5 6.5-3.5 9.6-1.5 4.9-1.6 5.9-.4 8.4 2.3 4.8 2.7 4.6 15.1-6.2 5.6-5 9.7-7.3 13.9-7.8 3.6-.4 5.1 1.5 7.5 10.2l1.7 6.2-2.4 2.7c-1.3 1.5-4 4.2-5.9 6.1-1.9 1.8-3.8 3.7-4.2 4.1-11.3 11.7-16.6 16.6-22.3 20.7-2.4 1.7-9.2 7.5-15.1 13-5.8 5.4-12.5 11.3-14.8 13.1-3.4 2.7-25.6 25.4-34.7 35.5-7.8 8.7-13.9 15.9-17.9 21.3-2.5 3.3-6.9 9-9.7 12.6-2.8 3.6-8.9 12.4-13.7 19.6-11.5 17.5-12.7 18.7-17.4 18-9.9-1.4-19.3-6.2-25-12.7-7.2-8.2-15.1-30.5-17.6-49.4-.3-2.2-.9-6.5-1.3-9.5-1.1-7.8-.6-57.3.6-61.4 1.3-4.6 2.8-5.6 11.3-8.1 10.6-3.1 34.8-12.5 44.3-17.3 8.3-4.1 9.8-5.3 19-14 3.9-3.7 8.2-7.6 9.6-8.7 1.4-1.1 3.5-3.4 4.7-5.2 1.2-1.7 3.8-4.1 5.7-5.3 1.8-1.1 5.7-5.3 8.6-9.3 2.9-4 6.9-9.1 8.8-11.5 3.2-4.1 11.1-20 15.1-30.7 5.6-14.9 6.9-27.8 3.8-36.7-.9-2.4-2.1-6.1-2.7-8.3-.6-2.2-3.5-8.1-6.4-13-5-8.5-5.6-9.2-11.7-12.2-11.9-5.8-18-7.3-27.8-6.9-11.4.5-14.2 1.9-26.5 13.6-20.2 19.2-41.4 54.2-60.2 99.5-6.4 15.4-9.7 25.6-11 34.6-.4 2.4-1.3 5.6-2.1 7.1-1.8 3.5-2.8 3.6-18.4 2.3-15.8-1.4-19.4-1.2-23.4 1.6-2 1.3-4.3 3.8-5.2 5.4-2 3.7-1.8 4.7 8.6 44 1 3.8 2.2 10.1 2.5 13.8.4 3.7.8 7.6 1 8.5 2 10.8 2.8 39.8 1.3 48.6-.5 2.8-1 7.3-1.3 10.1-.7 9-1.6 12.8-5.7 24-5.4 14.9-12 28.2-16.3 33-1.9 2.2-3.5 4.3-3.5 4.8 0 2-11.2 11.1-17.8 14.3-6.2 3.1-8.3 3.6-14.1 3.6-14 0-23.7-4.8-32.1-15.9-5.2-6.8-6.7-11.3-5.5-16 .4-1.6.9-3.9 1.1-5.3.3-1.4 1.1-5 1.9-8 .7-3 1.7-8.4 2-12 1.1-10.2 1.5-13.3 2.1-16.4.7-3.2 1-7 1.9-25.1.3-6.6.7-14.5 1-17.5.2-3 .7-9.8 1-15 1.3-20.9 2.4-37.1 3-43 .2-2.5.7-7.9 1-12 .3-4.1 1-9.8 1.5-12.5 1.5-8.2 2.5-28.8 2.3-48.5-.1-20.8-1-36.6-3.4-56-.6-5.2-1.3-9.8-1.5-10.1-.2-.4-.6-4.4-1-9-.7-9.9-2.7-14.3-9-18.9-3.5-2.7-5.4-3.3-10.9-3.7-8.3-.6-10.8.9-14 8-3.8 8.7-5.5 14.4-8.5 29.6-1.7 8-3.7 17.1-4.6 20.1-1.8 6.2-2 7.5-2.8 17.8-.3 4.1-.8 7.7-1 8-.2.4-.7 2.8-1 5.4-2.2 17.2-2.4 19.6-3.1 28.6-.3 4.1-.7 7.7-1 8.1-.2.4-.7 4.6-1 9.2-.3 4.6-1.1 11-1.7 14.2-1.3 7-2.5 7.7-11.8 6.7-6.5-.7-8.4-.6-19.5.5-11.8 1.2-34.4 7.9-41.9 12.4-1.7 1-5.8 3.3-9.1 5.1-9.7 5.3-22.7 14.1-27.5 18.6-2.5 2.3-5.8 5.3-7.5 6.6-1.6 1.3-4.3 3.9-6 5.8-1.6 1.9-7 7.6-12 12.6-10.6 10.6-17.5 19.6-27 34.9-3.7 6-7.6 12.1-8.5 13.5-6.9 10.2-23.1 54.8-24.5 67.6-.3 2.7-.7 6-1 7.4-.2 1.4-.7 4.5-1 7-.4 2.5-.9 5.8-1.1 7.5-.3 1.6-1 5.2-1.4 8-.5 2.7-.7 13.8-.5 24.5.3 17 .7 21.4 3.4 34 3.3 15.9 4.5 20 8.6 28 2.6 5.2 7.4 12.9 8.5 14 .3.3 1.7 2 3 3.9s6.5 7.5 11.5 12.5c21.5 21.4 31.1 27.4 51.2 32 31.2 7.1 67.1-12.4 94.8-51.6 5-7 9.7-14 10.5-15.5.9-1.6 3.3-5.5 5.4-8.8 2.2-3.3 5.2-8.7 6.7-12 1.6-3.3 4.6-8.9 6.9-12.5 2.2-3.6 4-6.9 4-7.4 0-.4 1.6-4.3 3.6-8.5 4.2-8.9 8.2-18.8 13-32 4.9-13.5 5.9-14.3 12.3-9.4 9.7 7.5 18.4 12.2 25.9 13.9 25.6 5.7 47-.4 65.5-19 5.9-5.9 12.7-13.9 12.7-15 0-.3 1.6-3.1 3.5-6.3 1.9-3.2 4.2-8.1 5.1-10.8.9-2.8 2.7-7 3.9-9.5 1.3-2.5 3.7-9.9 5.5-16.5 4.5-16.6 4.5-25.9 0-55-2.1-13.8-2.2-14.5-4-21.5-.6-2.5-1.8-7.7-2.6-11.5-.8-3.9-2.6-10.2-4-14-1.4-3.9-3.6-10.4-4.9-14.5-1.3-4.1-3-9.4-3.8-11.7-1.3-3.4-1.3-4.4-.2-5.9 1.2-1.7 1.6-1.7 8.3-.1 3.8.9 8.8 1.7 11 1.7 5.9 0 6.4 2.3 4.7 23-.5 5.2-.8 17.4-.7 27 0 22.2 2.3 35.9 8.5 52.6 2.9 7.8 4.3 12.9 4 14.7-.4 2.2-.2 2.7 1.4 2.7 1.2 0 2.8 1.5 4.2 4 1.2 2.2 2.2 4.2 2.1 4.5-.3 3.6.6 5.8 4.3 9.8 5.7 6.3 18.8 16.1 26.5 19.8 3.4 1.6 6.2 3.6 6.2 4.3 0 .8-1.3 4.1-3 7.4-1.6 3.4-3 6.4-3 6.7 0 .4-2.6 5.9-5.9 12.3-9.6 19.2-21.3 50.6-25.7 69.2-.7 3-1.9 7.7-2.7 10.5-.8 2.7-1.7 8.8-2.1 13.5-.4 4.7-1.1 11.2-1.6 14.5-1.9 13-2.9 44.3-1.6 53.6.3 1.9.8 7.1 1.1 11.7 1.1 15.5 5.4 35.4 12 55.7 3.2 9.6 14.9 37.4 18.2 43 1.3 2.2 3 5.6 3.9 7.5 2.9 6.7 7.5 15.4 14.1 26.2 10.8 17.8 16.5 26.3 20 30.3 2.1 2.3 7.9 9.3 12.8 15.4 20.2 25.1 60.5 62.1 80.5 73.9 9.2 5.4 22 13.9 25.4 16.8 3.9 3.3 36.3 19.1 49.2 23.9 5.3 2 13.9 4.7 19.2 6.1 5.3 1.4 10.1 2.9 10.8 3.5 3.9 3.2 33.8 5.5 45.7 3.5 5.5-.9 19.9-6.9 25.3-10.6 2.6-1.7 5.9-3.3 7.3-3.5 1.4-.1 2.9-.3 3.3-.4.4 0 1.4-1.3 2.2-2.9.9-1.5 3.2-4.5 5.2-6.7 5.1-5.5 9.5-12.7 12.9-21 1.6-3.9 3.2-7.5 3.6-8 .8-1.3 6.7-19.8 7.4-23.3.7-3.7 1.1-6.1 3.1-17.2 2-11 2.1-12.2 3.1-29.5 1.4-24.9.2-65.7-2.2-77-.4-1.7-.8-7.5-1-13-.1-5.5-1.2-14.5-2.4-20-2.5-12.4-3-14.8-3.7-21-.3-2.8-1.4-8.6-2.4-13s-2.2-10.7-2.5-14c-.4-3.3-1.2-7.1-1.7-8.4-.5-1.3-2.2-8.7-3.8-16.5-8.6-40.3-19.9-82.1-35.5-131.1-2.4-7.7-6.5-21.2-9.1-30-4.9-16.7-8.7-27.6-12.5-36-2.6-5.8-4.2-10.1-9.1-24.1-4.8-13.5-19.7-54.2-21.3-57.9-2.6-6.2-8.5-22.5-8.5-23.6 0-.6-1.3-3.9-2.9-7.3-1.6-3.3-3.3-7.5-3.7-9.1-.4-1.7-1.7-4.6-3-6.6-1.2-1.9-3.3-7.2-4.7-11.6-2.3-7.1-10.2-27.1-14.1-35.8-2.7-5.9-2.7-6.2 2.2-10.6 2.6-2.3 9.7-8.8 15.7-14.5 6.1-5.7 12.4-11.3 14-12.6 2.8-2.1 18.4-16 28.5-25.2 9.8-9.1 16.7-14.6 18.3-14.6 2.2 0 2.9 1.4 1.8 4.2-.5 1.4-.5 3.3.1 4.8 1 2.6 1.3 3.9 2.2 10.1 1.4 9.1 8 27.7 13.4 37.5 6.8 12.3 12.4 19.3 21.1 26 3.5 2.7 6.8 5.4 7.5 6 1.9 1.7 9.9 5.3 14.2 6.2 7.5 1.7 20.3.7 26.9-2 8.1-3.3 19.6-11 27.6-18.6 10-9.4 22.5-29 24.4-38.2.8-3.9 3.1-8 4.5-8 .5 0 2.2 2.1 3.7 4.7 5.1 8.9 17.7 18.6 30.1 23.3 10 3.8 19.9 4.1 32.7 1 14-3.5 29.5-12 38-20.9 8.5-9 12.5-13.4 14.8-16.5 1.2-1.6 3.7-4.5 5.5-6.5 6.7-7.1 18.5-33.9 19.5-44.1.4-3.6.9-7.6 1.2-9 .3-1.4.7-6.9 1-12.2.6-8.9.4-10.1-1.8-14.5-2.5-4.9-3.5-9.4-3.9-17.1-.4-7.7-2.1-7-6.7 2.7-2.3 4.8-4.4 10.5-4.8 12.7-.8 5.3-2 7.4-4.3 7.4-1.6 0-6-4.7-6-6.5 0-.3-2-4.1-4.4-8.3-2.5-4.2-6.7-12.9-9.4-19.2-2.7-6.3-7.2-16.1-10.1-21.8-2.8-5.6-6.4-13.5-8-17.5-9-22.5-21.2-39.5-32.6-45.5-4.4-2.3-6.2-2.6-14.5-2.7-8.5 0-10.1.3-15.3 2.9-6.2 3-11.1 8.3-17.6 19-6.2 10.3-12.8 29.7-13.8 40.7-.4 5-.2 5.9 2.3 8.8 2.8 3.3 2.8 3.3 9.8 2.7 4.1-.4 7.7-1.2 8.7-2.2.9-.8 3.8-6.8 6.4-13.2 6.2-15.1 14.9-29.8 18.4-31 3.2-1.1 5.7-.8 7.8.9 2.6 2.2 9.3 12.6 12.2 19.2 3.6 8 7.4 16 12.3 26.7 5.6 12 7 16.1 5.9 17.4-.7.8-4.9 1.1-12.1 1-9.1 0-11.6.2-13.3 1.6-1.2.9-4.6 2.5-7.5 3.5-11.4 3.7-34.4 22.9-39.6 33-5.5 10.8-10.8 23.1-11 26-.2 1.6-.4 3.3-.5 3.6 0 .4-1.9 1.4-4.1 2.3-4.7 1.9-7.4 5.7-9.6 13.6-5.1 18.5-16.4 42.4-23.9 50.6-.5.6-2.9 3.2-5.2 5.7-5 5.4-17.6 15.1-21.6 16.6-9.7 3.7-17.3-.7-28.9-16.9-6-8.4-12.7-25.7-14.4-37-.3-1.9-1.2-5.4-1.9-7.6-2.9-8.7-4.9-26.5-3.4-29.6.5-.9 3.9-4.7 7.7-8.5 3.7-3.7 8.1-8.6 9.8-10.7 2.9-3.9 8.4-10.9 10.5-13.5 9-10.7 12.6-22.6 10-33.4-1.7-7.1-3.6-9.4-9.9-11.7-11.4-4.3-23.2-3.3-30.9 2.6-7.9 6-17 28.8-19.8 49.4-.3 2.5-.8 5.4-1 6.5-.2 1.1-.4 3.2-.4 4.7-.1 2-2.2 4.8-8.1 10.7-4.3 4.4-9.9 9.3-12.2 10.9-2.4 1.6-11.7 10.3-20.8 19.2-9.1 9-19.2 18.6-22.5 21.3-3.3 2.8-10 8.7-14.9 13.3-7.6 7.2-9.1 8.2-10.8 7.3-2-1.1-10.8-18.8-10.8-21.8 0-2.7 5.5-11.2 13-20.1 3.9-4.7 10.8-13.7 15.2-20 4.5-6.3 10.7-14.9 13.8-19 6.1-8.1 20.8-31 27.4-42.7 8.5-14.9 9.7-17 13.3-23.3 3.6-6.1 15.1-29.6 24.3-49.5 4.3-9.1 13-31.2 13-32.8 0-.4 3.6-9.9 7.9-21 4.4-11.1 8.9-23.1 10-26.7 4.2-13.3 15.5-57.4 16.4-64 .3-1.9 1-5.5 1.5-8 .6-2.5 1.3-6.5 1.7-9 .3-2.5.8-5.2 1-6 .2-.8.7-5.1 1-9.5.7-9.2 1.2-12.6 2.6-17.5.5-1.9 1.2-12.3 1.4-23 .3-10.7.7-23.8 1.1-29 1-16.8 1.1-18.1.3-23.9-.4-3.1-.9-9.7-1.3-14.7-.3-5-1.1-10.4-1.7-12-.6-1.6-1.3-5.2-1.5-7.9-.2-2.8-.6-7.4-.9-10.2-.4-2.9-.6-5.5-.7-5.8 0-.2-.6-3.3-1.5-6.7-1.7-7.5-2.2-9.4-2.9-13.2-.2-1.6-.7-3.2-.9-3.6-.2-.3-.7-2.8-1-5.4-.4-2.6-1.8-8.1-3.1-12.3-1.3-4.2-2.4-8.1-2.4-8.8 0-2.7-7.3-24.1-9.1-26.7-1.1-1.4-1.9-3.1-1.9-3.6 0-.6-1.3-3.9-2.9-7.4-1.6-3.5-4.3-9.4-6-13.1-2.9-6.4-8.2-14.6-12.4-19.2-1-1.1-3.5-4.7-5.4-8-1.9-3.3-5.3-7.4-7.6-9.2-2.3-1.7-6.9-5.7-10.2-8.7-3.3-3.1-8.2-6.8-11-8.2-2.7-1.4-7.1-4.3-9.6-6.4-3.9-3.3-7.1-4.7-20-8.5-18.3-5.5-26-6.2-39.4-3.5zm30.5 25.3c5.2 1.4 13.8 4.6 19 7.2 7.9 3.9 10.9 6.1 18 13.4 4.7 4.7 10.3 11.3 12.4 14.6 2.1 3.3 5.1 7.3 6.6 9 3.2 3.6 11.2 18.4 13 24 .7 2.2 1.6 4.4 2 5 2.5 3.2 15.2 48.7 16.6 59.5.2 1.9 1.3 8.2 2.3 14 1.1 5.8 2.2 13.4 2.6 16.9.3 3.6.8 7.9 1 9.5 2.3 16.1 2.3 66.2 0 79.1-.5 3.1-1 7.1-2 16.5-.3 3-.8 6.6-1 8-.6 4.3-2.5 17.3-3 21.5-.7 5.9-1.1 7.7-5 22.5-1.9 7.4-5 19.8-6.9 27.5-1.9 7.7-4.5 16.9-5.6 20.5-1.2 3.6-2.3 7.2-2.5 8.1-.9 4.1-4.6 15.1-6 17.9-.9 1.7-3.3 7.9-5.4 13.8-5.9 16.6-12.6 33.2-15.9 39.8-1.6 3.2-4.2 8.8-5.7 12.4-4.4 10.5-18 37.5-25.6 51-3.9 6.9-8.3 14.7-9.8 17.3-3.1 5.6-3.2 5.8-9.3 16.2-2.6 4.4-7.9 12.5-11.7 18-3.9 5.5-10.4 15.3-14.5 21.7-9.2 14.4-15.3 22.8-16.6 22.8-2 0-5.1-6.8-9.6-21-2.5-8-5.4-16.8-6.4-19.5-3.5-9.7-10.9-33-11.5-36.2-.3-1.8-1.9-7-3.5-11.5-1.6-4.6-4.5-14.2-6.4-21.3-2-7.2-4.5-15.7-5.6-19-1.1-3.3-2-6-1.9-6 .1 0-.6-2.7-1.6-6-.9-3.3-1.9-7.1-2.1-8.5-.3-1.4-1.8-7.5-3.4-13.5-3-11.4-11.8-47.1-12.6-51.5-.3-1.4-.9-3.9-1.3-5.5-.5-1.7-1.2-4.8-1.5-7-.3-2.2-.8-5.1-1-6.5-.8-5-2-12.5-2.1-13.5-.1-.6-.4-2.6-.8-4.5s-.9-5.2-1.3-7.4c-.3-2.1-.8-4.8-1-6-1.6-8.2-2.9-16.5-3.9-25.6-.3-2.5-.8-6.2-1-8.3-.3-2-.7-5.4-1-7.5-.8-6.6-1.4-11.6-2-18.2-.3-3.6-.8-8.3-1-10.5-.3-2.2-.7-9.4-1-16-.4-6.6-.8-13.8-1-16-1.1-9.9-.3-58.9 1.1-71.5.3-2.5.7-7.2.9-10.5.9-12.6 1.8-19.4 4.1-31 1.4-6.6 2.7-13.1 3-14.5 3.2-16 15.6-44.5 26.9-62 14-21.7 50.5-49.8 70-54 6.5-1.4 21.2-.3 31.5 2.3zm-159.2 548.6c2 1 4.5 2.7 5.4 3.8 2.7 2.9 5.6 10.3 6.1 15.3.5 5.1-1.6 21.8-3.4 27-1.9 5.2-10.6 21.7-15.2 28.5-4.7 6.9-27.5 30.5-36 37.1-13.5 10.6-43.9 23.2-43.1 17.8.1-.5.4-2.7.7-4.9 1.5-10.2 13.5-39.2 25-60 2.4-4.4 6.1-11.2 8.2-15 5.5-10.3 11.9-19.9 18.3-27.8 3.1-3.8 6.3-7.8 7.1-8.9.8-1.1 4.2-3.8 7.5-6.1 3.4-2.2 6.3-4.4 6.4-4.9.2-.4 1-.8 1.8-.8s1.4-.4 1.4-.9c0-.8 1.2-1.3 5.3-2 .4 0 2.4.8 4.5 1.8zm435.5.6c7 2.9 17.2 9.7 21.4 14.2 2.3 2.5 5.8 7.7 7.9 11.5 2 3.9 4.9 8.4 6.5 10.1 1.6 1.6 3.8 4.9 4.9 7.3l2.2 4.4-2.9 5.2c-2.9 5.4-23 31.8-24.2 31.8-.3 0-3.1 2.3-6.1 5.1-12.3 11.4-20.6 14.9-36 15.1-12 .1-16.4-2.3-24.5-13.7-5-7-7-11.5-9.4-21-2.7-10.6-2.6-17.8.3-26.1 3-9 3.7-10.3 9.9-19.4 5-7.4 15.2-17.1 21.1-20 4.3-2.2 13.7-5.8 16.1-6.3 3.4-.6 9 .2 12.8 1.8zm-310.8 164.9c1.1 4.2 1 4.8-.6 5.7-2.4 1.3-2.4 2.9 0 2.9 2.7 0 4.5 2.7 4.3 6.5-.2 1.9.4 3.7 1.3 4.5 1.8 1.5 2 4.1.3 5.8-.9.9-.6 1.2 1.5 1.2 3.2 0 4.5 2.3 2.7 4.5-1 1.2-1 1.5.3 1.5 2.5 0 3.1 2 1.2 4-1.7 1.9-1.7 2 .9 2.9 2.9 1.2 3.1 1.9 1.5 5.5-1.4 2.9.7 9.3 10.9 33.6 3.5 8.5 7.7 19.3 9.2 24 1.5 4.7 4.4 12.9 6.4 18.3 2.1 5.4 3.9 10.6 4.1 11.6.5 2.4 6.4 18.1 8.4 22.1.9 1.9 2.9 4.1 4.3 4.7 5.5 2.7 8.1 12.1 3.1 11.6-2.5-.3-2.4.3 3.6 17.2 9.8 27.5 13.2 37.8 22.5 68.5 8.1 26.5 20.5 74.6 24.6 95 1.6 8 4 19.2 5.4 25 1.4 5.8 2.7 11.8 3 13.5.3 1.6.8 4.1 1 5.5.3 1.4.8 4.1 1 6 .3 1.9.8 4.5 1 5.6.6 3.1 1.6 9.4 2.2 13.4.2 1.9.6 4.6.9 6 1 5.3 1.7 10.1 3.1 22 .3 2.5.7 5.9.9 7.6.3 2.8.8 8.1 2 21.9.7 7.8.8 53.6.1 57.5-.3 1.9-.8 7.5-1.1 12.4-.3 4.8-.7 9.1-.9 9.5-.2.3-.7 3-1 5.9-.3 3-1.1 7.3-1.6 9.5-.5 2.3-1.1 5.3-1.3 6.7-.3 1.4-1 4.5-1.7 7s-1.4 5.5-1.6 6.8c-.8 4-6 17.5-8.6 22.1-6 10.6-15.2 19-26.5 24.4-6.1 2.9-7.7 3.2-15.8 3.2-22.9-.1-38.2-4.8-81.7-24.8-11.4-5.3-23.3-11.3-26.5-13.5-3.2-2.2-8-5.1-10.8-6.5-16-8.1-37.2-24.7-59-46.3-13.9-13.7-20.9-21.5-27.5-30.4-1.4-1.8-4.7-5.9-7.4-8.9-2.7-3.1-5.4-7-6.1-8.6-.7-1.7-2.4-4.2-3.7-5.6-4-4.3-9.5-12.2-12.1-17.4-1.4-2.8-4.1-8-6-11.7-6-11.3-9.4-18.1-11.7-23.3-13-29.3-18.5-48-23.3-79.5-1.8-11.8-2.2-18.4-2.1-35.5.2-34.2 1.7-48.9 6.9-67.5 1.3-4.7 4-14.5 6-21.8 2-7.4 4.7-15.7 6-18.5 1.3-2.9 2.6-6.3 2.9-7.7.6-3.7 3.3-9.7 14.1-32.5 2.6-5.5 5.6-11.9 6.7-14.2 3.4-7.4 6.5-9.8 16.3-12.8 5-1.5 10.7-3.6 12.8-4.6 12.4-6.4 29.9-21.3 33.6-28.8 3.3-6.6 9.4-17.6 10.7-19.1 2.2-2.6 8.3-18 8.2-20.8 0-1.5.5-5.4 1.2-8.6.6-3.3.9-7.7.6-9.9l-.7-4.1 12.8-12.6c7-6.9 15.7-15 19.3-18 3.6-3 8.8-7.6 11.5-10.1 2.8-2.6 8.5-7.4 12.8-10.8 4.2-3.4 7.7-6.5 7.7-6.9 0-.5 1.8-1.9 4-3.1 3.3-1.8 4.4-2 5.5-1.1 1.2 1 1.5 1 1.5-.2 0-.8.5-1.9 1.2-2.6 1.9-1.9 4.1.2 5.3 5.2zm-412.6 13c1.4 1.7 1.7 8.4.6 16.1-1 7.7-1.3 52.5-.3 59 .4 2.7.9 7.9 1.2 11.5 1.1 13.1 6.3 33.1 13.1 49.5 3 7.3 3.3 8.5 2.4 12.5-1.1 5-11.3 35.7-13.4 40.5-.7 1.6-2.8 6.4-4.6 10.5-8.4 19.8-22.6 46.3-33.7 63-9.4 14.1-8.6 13.1-14.7 19.5-2.7 2.9-6.4 6.8-8.1 8.6-9.7 10.5-20.2 17.5-31.2 21-8.5 2.6-21 2.1-28.3-1.3-7.7-3.5-19.8-11.8-24.1-16.5-2-2.1-5.2-5.6-7.3-7.8-5.2-5.6-8.5-10.6-13.9-21.1-3.7-7.3-4.6-10-4.4-13.4.1-3.2-.3-4.6-1.7-5.6s-1.9-2.8-2.1-6.6c-.1-2.9-.7-8.8-1.3-13-1-6.9-.8-23.3.4-31.3.2-1.7.7-5.5 1-8.5.3-3 1.2-9.1 2.1-13.5 3.2-16.8 4.4-23.1 4.8-25.5.2-1.4 1.3-5.2 2.4-8.5 1.2-3.3 3.3-9.8 4.8-14.5 3-9.7 7-18.1 12.4-26.1 2.1-3 5.4-8.5 7.4-12.2 1.9-3.7 4.9-8.7 6.5-11 3-4.4 4.2-5.8 15.1-17.4 3.8-4 7.4-8 8.2-9.1.7-1 4.5-4.3 8.3-7.3 3.9-3 8-6.3 9.1-7.4 3.2-3 5.2-4.5 13.4-10 4.1-2.7 7.7-5.2 8-5.5 1.2-1.4 6.3-4 15.9-8.4 17.8-8.1 48.7-14.2 52-10.2zM1995.1 680c-9.2 2.2-22.8 8.9-26.7 13.2-1.7 1.8-4.4 4.3-6 5.5-1.6 1.2-4.9 3.6-7.4 5.5s-6.6 6.4-9.2 10.2c-2.6 3.7-6.5 8.9-8.8 11.4-2.3 2.6-5.9 8.3-8.1 12.8-3.9 8.1-10.3 26.3-11.3 31.8-.3 1.6-1 5.3-1.6 8.3-.6 2.9-1.2 5.6-1.2 6 0 .5-.4 1.9-.9 3.2-3.1 8.1-4.6 54.1-2.3 71.1 1.5 11.5.9 15.7-3.8 27-6.9 16.6-11.5 22.4-30.2 38.5-6.2 5.3-17.5 11.2-22.9 11.8-4.8.5-14-1.7-19-4.7-2.5-1.4-6.8-5.1-9.6-8.2-3.9-4.5-5.3-6.9-6.2-11.3-.7-3.1-3.6-12.2-6.5-20.2-5.9-16.3-6-16.6-7-28.7-1.6-18.7-.8-35.7 2.2-45.9 2.3-8 9.4-21.8 14.4-28.2 4.3-5.5 12.1-11.1 15.2-11.1 1.1 0 2.8 1.5 3.9 3.5 1.2 1.9 3.1 3.8 4.4 4.1 4.6 1.1 14.8-1.8 18.8-5.4 2.3-2.1 4.7-7.6 4.7-10.9 0-6.9-8.9-15.1-18.1-16.9-14.4-2.6-27.8 4.1-46.3 23.1-5.1 5.2-6.9 8.3-14.8 25-6.4 13.6-7.6 17.6-9.8 33.1-1 7.3-1.3 27-.6 33.4.3 1.9.7 5.7 1 8.4 1.2 9.5 3.8 20.2 7.7 32 4.3 12.7 4.3 15.1.1 19.6-1 1.1-3.6 5-5.8 8.7-4.7 8-22.7 26.4-28.7 29.3-2.3 1.2-6.8 2.7-10 3.6-8.8 2.3-11.1 1.1-18-8.9-8-11.7-9.1-14.6-14.2-36.7-1.5-6.4-3.5-16.3-4-20-3-21-7.1-39.3-11.7-51.5-4.2-11.5-8.6-16.2-17.6-18.9-5.9-1.7-6.5-1.8-10.6-.2-2.4.9-5 2.4-5.8 3.4-3.8 4.4-10.7 17.6-13.7 26.2-5.3 15.4-9.1 28.1-9.1 30.5 0 1.2-.9 3-2 4-2.2 1.9-5 1.4-5-1 0-.9-1.2-5.3-2.6-9.8-2.3-7.1-3.3-8.9-8.1-13.5-6.5-6.3-8.9-7.4-13.5-6.2-3.5 1-6.8 5.2-6.8 8.7 0 1 2.5 10.6 5.6 21.3 6.6 22.7 7.7 27.6 9.9 42.5 2.3 15.4 2.3 15 2.9 25.6.4 5.2.9 10.6 1.1 11.9.3 1.4.8 4.5 1.1 7 .5 3.7 6.2 33.9 7.9 41.8.7 3.1 11.3 11.2 14.7 11.2 1.5 0 2.9-.4 3.3-.9.3-.5 1.8-1.2 3.4-1.6 1.6-.3 3.8-1.8 4.8-3.3 1.6-2.4 1.8-5 1.7-24.7-.1-12.1-.5-25.2-1-29-1.6-12.8-1.1-37.4 1.2-54.5 1.1-8.4 5-23.6 7.9-31 1.6-4.1 2.7-7.4 2.5-7.8 0-.1.7-1.6 1.5-3.3 2.5-4.8 4.5-3.4 6.5 4.6 1 3.8 2.3 8.3 2.9 9.9.7 1.6 1.4 5.8 1.6 9.3.3 3.5 1.2 9.6 2.1 13.6.8 4 1.7 8.8 2 10.7 1.1 8 2.6 13.6 6 22.7 7.6 20.3 15 30.2 29.3 39.7 9 5.9 11.6 6.6 23.4 6.3 9.7-.2 10.8-.4 17.8-3.9 4-2.1 10-5.8 13.1-8.2 6.4-5.1 21.4-22.2 27.9-31.7 2.3-3.5 4.7-6.7 5.2-7.1 1.5-.9 3.7.1 8.2 3.7 4.8 3.9 18.5 10.9 24.2 12.4 2.2.6 8.1 1.2 12.9 1.2 7.7.1 10.1-.3 17.4-3 11.5-4.2 16.2-7.2 26.4-16.5 4.8-4.4 10.5-9.3 12.7-11 4-3.1 8.2-8.7 13.3-17.9 1.7-2.9 3.4-4.7 4.5-4.7 1.8 0 10.1 7.4 10.1 9 0 1.3 14.1 11.5 19 13.7 12.2 5.5 25.5 8.1 43 8.4 6 0 10.4-.8 22-4.1 7.9-2.3 15.7-5.1 17.3-6.2 1.5-1.1 9.4-5.3 17.6-9.3 19-9.4 52.8-32.1 62.6-42 1.1-1.1 5.2-4.6 9-7.9 8.6-7.1 25.5-23.6 25.5-24.8 0-.5 1.7-2.7 3.9-5.1 2.1-2.3 6.7-8.3 10.1-13.2 4.8-6.8 6.4-10 6.6-13 .1-2.2.7-5.5 1.3-7.3.8-2.7.7-3.9-.6-5.8-.8-1.3-1.9-2.5-2.4-2.5-.5-.1-1.5-.2-2.1-.3-2.5-.4-5 1.7-20.6 16.8-16.4 16-26 24.7-30.2 27.4-1.4.9-3.8 3-5.5 4.8-1.6 1.7-5.1 4.5-7.7 6.3-2.7 1.8-4.8 3.6-4.8 4.1 0 .6-2.5 2.4-5.5 4.2-10.3 6-15.3 9.3-24.5 15.5-5.1 3.5-9.7 6.3-10.2 6.3-.6 0-4.5 2.1-8.7 4.8-15.8 9.9-26.5 14.4-49.4 20.7-6.2 1.7-19.4 1.2-26.7-1-9.9-3.1-20.2-8.8-25.8-14.3-5.6-5.6-10.8-15.1-11.7-21.8-.3-2.2-.9-5.3-1.2-6.9-.4-1.7-.8-7.3-.8-12.5-.1-5.2-.3-13.1-.4-17.5-.4-12.7-.3-13.1 2.4-14.9 2.6-1.7 4.4-2 17-3.1 10.3-.9 13.4-1.9 31.2-10.5 19.3-9.3 33.9-19 44.9-29.7 9.1-8.9 10.2-10.4 16.9-22.8l4.9-9V734c.1-15.1-1.3-19.9-8.3-29.2-6.9-9.1-13.3-14.5-24.7-20.8-11.3-6.3-14.4-6.8-26.3-4zm13.4 21c5.1 1.7 13.2 9.9 16.1 16.4 8.3 18.2-1.7 35.5-32.3 55.8-14 9.3-17.4 10.9-32.3 15.3-10.7 3.2-14.3 3.6-18.4 2.2-2.8-1-2.8-1.1-2.3-6.1 1.8-14.7 4.7-24.6 10.8-36.9 10.5-21 19-30.7 36.9-42.2 9.8-6.3 13.5-7 21.5-4.5z"/><path d="M1402.5 871.8c-6 2-9.4 6.6-8.6 11.7.6 4.5 5.3 11.3 9.3 13.5 10.2 5.7 21.8-2.8 18.8-13.8-2.2-8.5-11.6-13.9-19.5-11.4z"/></svg>